<?xml version="1.0" encoding="utf-8"?>
<!-- Generator: Adobe Illustrator 24.1.0, SVG Export Plug-In . SVG Version: 6.00 Build 0)  -->
<svg version="1.1" id="Layer_1" xmlns="http://www.w3.org/2000/svg" xmlns:xlink="http://www.w3.org/1999/xlink" x="0px" y="0px"
	 viewBox="0 0 823 890" style="enable-background:new 0 0 823 890;" xml:space="preserve">
<g transform="translate(0.000000,890.000000) scale(0.100000,-0.100000)">
	<path d="M3493.8,8417.5c-4-52-10-69-38-102c-50-62-76-130-82-217c-4-64-1-84,17-121c21-42,21-45,4-83c-26-61-23-186,7-248
		c40-84,146-166,270-212c82-29,216-45,292-33l68,11l48-36c67-49,203-113,270-127c76-15,228-8,269,14c18,10,48,31,67,48l35,30l68-38
		c41-24,69-47,71-58s10-27,17-35c21-25,73-167,105-290c54-203,118-391,224-657c65-164,146-389,146-406c0-7,9-39,20-72s17-44,13-25
		c-7,41-64,243-88,315c-24,70-98,269-124,334l-22,54l68-6c78-8,234-46,310-76c298-117,517-346,624-649l18-52l-37-24
		c-134-85-181-241-116-386c30-66,73-110,108-110c28,0,96,48,123,87c48,68,60,190,33,346c-7,42-10,80-6,84c13,13,172-16,257-47
		c144-52,247-132,358-280c168-222,264-425,291-613c10-67,9-89-5-147c-22-91-46-127-101-151l-45-20l-37,29c-100,78-255,140-410,162
		c-104,16-157,4-230-52c-92-69-135-166-102-229c30-55,211-99,332-79c64,10,269,69,332,95l33,14l65-67c136-139,211-292,233-472
		c16-135-55-328-163-442l-35-37l-36,18c-121,62-288,51-386-24c-51-38-59-58-40-99c40-83,148-88,299-13c52,26,99,47,104,47
		c17,0,171-145,223-210c112-140,163-302,140-446c-46-298-364-477-844-477c-122,0-162,4-171,14c-7,8-25,46-39,85
		c-52,134-116,166-210,103c-57-38-87-78-87-116c0-52,59-90,190-122l65-16l22-85c51-192,55-214,51-295c-11-199-116-281-358-277
		c-66,1-151,9-200,19l-84,18l-41,59c-45,66-140,136-185,136c-30,0-103-49-120-80c-26-48,62-118,208-165c44-15,55-23,67-53
		c29-68,13.1-150.6-39.9-231.6l-109-120l132.9,104.6c63,61,92,119,100,199c5,44,10,60,20,58c8-2,64-5,125-9c134-6,220,11,311,62
		c237,134,295,282,221,561l-22,81l145,6c295,12,492,81,689,240c202,164,286,359,237,552c-40,159-167,336-315,437c-25,17-47,33-49,35
		c-2,1,27,34,65,73c268,273,264,600-13,925l-57,68l30,21c171,123,213,249,158,469c-16,65-81,221-127,307c-87,163-226,324-353,410
		c-142,94-316,142-441,120c-36-6-66-10-68-8c-1,2-12,34-24,72c-78,243-286,482-528,604c-126,64-301,115-441,128c-66,6-75,5-96-15
		c-13-13-26-19-29-14c-19,31-137,379-137,405c0,4,26-6,57-23c50-27,62-30,112-24c31,3,95,1,143-5c164-20,265-57,693-250
		c99-45,196-88,215-95s109-43,200-80c182-73,250-95,511-160c236-60,358-78,483-73c122,5,169,25,220,96c42,57,58,114,58,208
		c-1,204-170,459-437,658c-181,134-507,270-761,317c-98,19-156,23-329,23c-125,0-242-5-290-13c-360-58-651-189-839-377l-72-72
		l-36,108l-35,109l68-6c86-7,136,10,200,70c54,51,89,132,93,220c3,53,6,61,40,88c104,86,121,226,43,359c-17,30-66,89-107,131
		c-53,53-79,88-88,117c-33,109-189,226-394,293c-81,26-103,29-221,29h-130l-66,64c-47,44-91,75-153,105c-100,48-119,52-248,41
		c-52-4-115-13-140-20c-90.3-12.6-225.4-140.5-273.1-228.7 M3755,8683c54,28,190,65,242,66c25,1,72-11,110-26s91-41,118-59
		c49-31,113-91,104-97c-2-1-27-13-56-26c-89-41-183-151-183-216c0-14-1-25-2-25c-2,0-37,33-79,73c-41,40-96,83-121,94
		c-85,41-182,39-292-3c-12-5-14,0-7,23c5,15,42.7,102.1,71.9,120.3 M4803,8531c96-25,148-52,208-107c57-54,79-98,81-160
		c1-79-67-144-153-144c-122,0-120,128,2,164c28,9,65,13,82,10c30-4,29-3-8,11c-117,47-206,38-231-21c-12-29-12-39,0-67
		c27-66,156-147,233-147c73,0,153,55,153,105c0,24,16,18,49-21c129-146,151-300,58-401c-26-29-32-29-46,5c-11,26-75,102-86,102
		c-3,0,3-12,14-27c28-38,48-120,34-134c-20-20-126-23-184-4c-77,25-112,49-137,93c-31,56-29,105,6,132c23,19,37,21,100,18
		c39-2,72-2,72,0s-24,14-52,27c-77,36-195,31-220-8c-42-66,113-246,268-312c21-9,66-19,99-23c59-7,60-7,57-37c-5-40-48-134-75-164
		c-35-38-115-71-173-71c-50,0-178,33-188,48c-2,4,4,32,14,62c38,113-16,230-147,315c-32,21-60,39-61,41c-10,7,36,54,63,65
		c71,30,125,98,125,160c0,73-86,165-182,193l-43,13l-6,70c-7,71-23,113-67,171c-14,18-23,34-21,36C4471,8554,4696,8558,4803,8531z
		 M4444,8453c36-104,15-203-56-270s-185-66-214,2c-44,107,25,230,171,303C4414,8523,4421,8520,4444,8453z M3955,8400
		c37-18,55-35,69-64c25-50,31-120,17-174c-14-51-65-112-95-112c-11-1-32-7-46-15c-31-18-74-18-122-1c-21,8-36,10-33,6
		c6-9,108-60,122-60c5,0,21-13,36-28l28-29l-36-37c-30-32-43-38-89-43c-110-11-258,34-305,93c-52,66-51,166,0,275l30,63l25-43
		c30-54,57-86,114-136c41-36,37-27-13,29c-25,29-65,114-75,163c-9,41-9,42,35,74c74,52,128,69,213,66C3886,8425,3918,8419,3955,8400
		z M4151,8179c13-12,35-29,47-40c22-17,23-20,8-40c-13-19-13-26-1-49c25-49,115-108,255-167l25-11l-30-12c-89-35-257-36-326-2
		c-29,15-34,21-31,48c2,22-4,40-23,62l-26,31l32,41c27,33,34,51,37,100c2,33,5,60,7,60C4126,8200,4138,8191,4151,8179z M4660,8173
		c42-54,12-176-52-213c-26-14-29-13-69,25c-32,31-38,34-25,13c10-15,16-37,14-50c-3-21-8-23-63-22c-84,1-176,39-190,78
		c-8,24-6,31,15,48c27,22,81,19,146-8c50-21,52-12,3,15l-40,23l40,26c22,14,48,40,57,58c17,32,20,33,81,33
		C4632,8199,4642,8196,4660,8173z M4020,7968c0-23-17-40-35-36c-28,5-30,27-3,37C4014,7982,4020,7982,4020,7968z M3720,7811
		c41-12,87-21,102-21c26,0,28-3,28-37c1-50,26-104,88-185l51-67l-37-13c-22-8-77-13-137-12c-164,2-251,48-307,161
		c-35,72-42,152-19,231l12,42l72-39C3613,7849,3679,7822,3720,7811z M4127,7791c18-43,13-133-11-179c-17-33-46-64-83-89
		c-21-14-24-14-43,8c-50,60-76,194-47,248c7,13,29,29,51,36c21,8,43,18,48,23C4061,7857,4111,7830,4127,7791z M4325,7783l91-6l18-44
		c24-57,87-142,172-233l68-72l-24-19c-64-49-111-63-230-67c-98-4-124-1-179,18c-72,24-178,88-165,99c5,4,26,19,47,35
		c72,53,107,178,73,260c-21,50-21,49,12,42C4223,7792,4276,7787,4325,7783z M4672,7733c53-50,74-171,42-239c-23-48-30-49-70-19
		c-90,68-169,210-146,261C4521,7785,4618,7783,4672,7733z M6458,7260c251-35,393-77,607-180c230-110,387-219,520-362
		c39-41,81-96,94-122c23-47,23-48,6-92c-22-59-71-105-137-129c-45-17-77-20-213-19c-187,1-300,18-555,87c-187,50-457,139-560,184
		c-19,8-105,41-190,73s-230,88-322,124c-247,96-341,118-518,122c-80,3-145,7-145,12c2,18,151,106,259,152
		C5677,7269,6048,7317,6458,7260z M6215,5594c19-101,18-283-1-317c-10-17-12-17-37,3c-14,11-41,50-58,86c-62,126-46,285,33,319
		c18,7,36,11,39,9C6195,5692,6206,5647,6215,5594z M6630,4565c107-26,223-76,274-118l29-24l-114-33c-98-29-130-34-224-34
		c-145-1-203,22-242,97c-17,33-10,99,14,122C6390,4599,6509,4594,6630,4565z M6911,3354c77-22,80-30,23-55c-56-25-145-30-184-9
		c-35,18-70,51-70,67C6680,3376,6841,3374,6911,3354z M6172,2331c13-11,37-43,52-71l28-52l-23,7c-76,24-139,76-139,116
		C6090,2357,6139,2356,6172,2331z M5495,1600c21-23,4-27-19-4c-18,17-20,24-8,24C5473,1620,5485,1611,5495,1600z"/>
	<path d="M2098,8065c-325-46-610-187-833-410c-197-199-315-434-315-630c0-107,22-168,81-226c76-74,129-101,209-107
		c96-7,183,15,485,123c386,137,479,165,725,214c214,43,325,55,520,55c163,0,350-18,350-33c0-3-15-29-34-56c-217-323-382-648-467-920
		c-57-181-86-423-72-600l8-110l6,150c7,183,20,273,65,430c104,365,241,613,720,1307c90,132,94,139,88,178c-4,22-9,42-13,44
		c-3,2-31-32-61-76c-46-67-55-76-58-57c-25,239-172,424-450,567c-130,67-257,111-407,143C2515,8078,2238,8085,2098,8065z M2419,7800
		c227-24,434-84,621-181c180-93,332-225,391-342c22-42,23-38-37-123l-42-60l-104,14c-72,9-168,12-318,9c-239-5-367-24-684-98
		c-195-45-203-47-461-122c-361-104-613-151-695-128c-52,15-42,143,23,284c133,288,435,561,750,677C2051,7799,2220,7821,2419,7800z"
		/>
	<path d="M4361,7033c-31-38-36-65-36-188c0-91,4-118,21-157c57-122,127-37,126,152c0,118-40,220-86,220
		C4384,7060,4372,7048,4361,7033z"/>
	<path d="M4046,7017c-62-62-58-318,7-387c62-68,121,85,98,255C4133,7012,4092,7063,4046,7017z"/>
	<path d="M3105,6949c-438-54-644-103-830-197c-63-31-185-108-185-116c0-2,46,20,103,49c56,28,152,66,212,83c109,32,519,106,656,118
		c54,6,78,13,100,31c27,23,38,45,22,42C3178,6958,3144,6954,3105,6949z"/>
	<path d="M1934,6498c-108-111-130-146-147-228l-12-62l-85-27c-203-66-402-202-463-316c-41-76-24-223,36-308c10-16,18-30,16-32
		c-2-1-47-31-99-66c-109-72-301-258-345-332c-133-229-140-478-20-731c14-29,40-70,59-92l35-41l-37-17c-43-21-187-113-195-126
		c-4-5,28,9,49,22c48,30,198,94,241,103c17,3,47,19,65,36c31,27,32,29,10,29c-63,0-174,172-213,330c-29,113-23,289,12,395
		c61,180,220,353,417,454l39,20l24-26c51-55,187-133,231-133c36,0,111.6,33,122.6,70c10,40-13.6,113-53.6,154c-38,38-106,46-186,20
		l-57-17l-19,24c-32,42-61,112-72,174c-13,76,9,160,54,206c44,45,176,103,327,144l132,36l33-33c40-41,93-58,176-58
		c95,0,145,17,201,67c28,25,25.1,40,25.1,45c0,6-17.1,28.9-37.1,37.9c-29,13-49,14.1-168,16.1l-155,2l-14,33c-26,65,11,150,113,257
		c32,34,119,108,116,108C2088,6636,1983,6548,1934,6498z M2143,6161c77-29-49-43-141-16c-81,24-66,39,31,32
		C2078,6174,2128,6167,2143,6161z M1535,5509c20-18,43-45,51-60c13-26,13-29-1-29c-21,0-113,60-144,94l-24,26h41
		C1490,5540,1507,5533,1535,5509z"/>
	<path d="M5449,5453c-1-10,0-28,0-40c3-35-20-224-34-288c-107-462-430-834-840-968c-133-44-216-57-362-57c-569,0-1124,380-1363,933
		c-46,107-53,94-11-20c73-196,148-328,270-475c212-256,512-438,848-514c93-21,351-30,454-14c154,22,321,89,474,188
		c90,59,278,246,338,338c101,154,174,327,208,494c19,94,39,440,26,440C5453,5470,5450,5462,5449,5453z"/>
	<path d="M4922,5008c-7-7-12-30-12-52c0-79-56-136-137-141c-27-1-54-3-60-3c-23-3-14-59,13-92c38-44,94-70,154-70
		c96,0,150,43,165,132c8,46-2,130-18,152c-10,13-12,0-12-63c0-65-4-85-21-108c-44-61-147-83-226-47c-66,30-46,54,44,54
		c43,0,54,4,83,33c19,19,36,45,38,58c20,103,21,104,51,102l29-2l-28,29C4954,5023,4940,5026,4922,5008z"/>
	<path d="M3291,4996c-7-8-14-31-18-53c-5-37-5-38,11-15c29,38,76,23,76-24c0-33,46-82,89-95c26-8,52-8,84-2c89,20,86-16-6-62
		c-107-53-188-26-238,78l-30,62l5-48c7-60,24-94,73-140c32-32,44-37,84-37c95,0,199,81,199,155c0,47-16,56-91,49
		c-97-9-144,20-168,104c-9,34-16,42-35,42C3313,5010,3297,5004,3291,4996z"/>
	<path d="M743.9,4154c-124-123-187-245-213-420c-46-299,113-672,335-785c120-62,277-86,455-69c165,16,153,18,134-26
		c-67-151-93-378-60-524c28-128,103-256,179-307c79-53,141-66,307-67h132c15.2,0,30.2,3.1,44.2,9.2l63.9,27.8c78,33,160,76,160,83
		c0,1-39-11-87-28c-73-25-108-31-203-35c-135-5-204,7-289,49c-106,53-192,176-227,325c-26,110-15,313,22,428l9.4,28.2
		c12.7,38.1,45.1,66.4,84.6,73.8l0,0c83,16,163,46,220,84c49,33,50,39,2,14c-34-16-240-59-248-51c-14,14,93,176,139,210
		c76,57,209,58,223,2c8-31-60.9-119.1-81.9-146.1c-9-11,70.9,54.1,104.9,89.1c50,51,61,69,61,96c0,90-126,94-254,8
		c-76-51-168-141-215-211c-47-69-53-71-223-71c-316,0-501,105-624,355c-68,139-87,223-88,395c0,110,4,161,18,210
		c26,95,82,195,150,267c32,35,56,63,53,63S786.9,4196,743.9,4154z"/>
	<path d="M2248,2050c-109-90-176-352-134-520c45-181,172-333,353-425l57-28l-39-14c-45-16-72-37-81-67c-7-21-81-147-176-298
		c-26-43-48-89-48-103v-25h620c341,0,620,3,620,8c0,4-20,42-45,84c-25,43-45,79-45,81c0,3-18,36-40,73c-22,38-40,77-40,88
		c0,10-12,34-26,53c-29,38-31,36,71,53c151,26,356,108,519,207c20,13,30,14,33,6c2-6,18-32,35-58c92-138,341-246,662-286l99-12
		l-35-18c-39-20-78-63-78-85c0-7-14-44-31-81c-17-38-35-78-40-90l-9-23h605c333,0,605,3,605,6s-43,64-96,136c-52,73-102,144-110,160
		c-19,36-104,63-178,54c-44-5-47-4-26,6c233,108,310,153,157,92c-162-65-434-102-652-90c-233,14-483,72-611,143
		c-62,34-165,135-192,189l-21,41l49,48c50,50,103,137,114,190c20,94-94,87-184-12c-63-67-82-119-79-211l3-77l-63-33
		c-95-51-254-108-371-133c-140-30-429-33-564-6c-191,39-362,123-476,236c-87,87-124,142-156,237c-48,143-29,322,50,471
		c19,35,33,63,32,63S2268,2066,2248,2050z M4000,1492c0-67-16-114-49-146l-28-27l-12,45c-14,55-14,71,0,119c14,53,43,81,69,67
		C3996,1542,4000,1529,4000,1492z"/>
</g>
<path d="M351.9,38.8"/>
</svg>
