<svg width="169" height="59" viewBox="0 0 169 59" fill="none" xmlns="http://www.w3.org/2000/svg">
<path d="M22.4995 5.09014C22.4738 5.42317 22.4351 5.53205 22.2548 5.7434C21.9328 6.14048 21.7654 6.57598 21.7268 7.13317C21.701 7.54306 21.7203 7.67115 21.8362 7.90812C21.9715 8.17711 21.9715 8.19632 21.862 8.43969C21.6946 8.83037 21.7139 9.63093 21.9071 10.028C22.1647 10.566 22.8473 11.0912 23.6458 11.3858C24.1739 11.5715 25.0368 11.674 25.5263 11.5971L25.9642 11.5267L26.2733 11.7572C26.7048 12.071 27.5806 12.4809 28.012 12.5706C28.5015 12.6667 29.4803 12.6218 29.7444 12.4809C29.8603 12.4169 30.0535 12.2824 30.1758 12.1735L30.4012 11.9814L30.8391 12.2248C31.1032 12.3785 31.2835 12.5258 31.2964 12.5962C31.3093 12.6667 31.3608 12.7691 31.4059 12.8204C31.5411 12.9805 31.876 13.8899 32.082 14.6777C32.4298 15.9778 32.8419 17.1818 33.5246 18.8854C33.9432 19.9358 34.4648 21.3768 34.4648 21.4857C34.4648 21.5305 34.5227 21.7354 34.5936 21.9468C34.6644 22.1581 34.7031 22.2286 34.6773 22.1069C34.6322 21.8443 34.2651 20.5506 34.1106 20.0895C33.956 19.6412 33.4795 18.3667 33.312 17.9504L33.1704 17.6045L33.6083 17.643C34.1106 17.6942 35.1152 17.9376 35.6046 18.1297C37.5237 18.879 38.934 20.3457 39.6231 22.2862L39.739 22.6193L39.5007 22.773C38.6378 23.3173 38.3351 24.3164 38.7537 25.2451C38.9469 25.6678 39.2238 25.9496 39.4492 25.9496C39.6295 25.9496 40.0675 25.6422 40.2413 25.3924C40.5504 24.9569 40.6277 24.1755 40.4538 23.1764C40.4088 22.9075 40.3894 22.6641 40.4152 22.6385C40.4989 22.5552 41.5229 22.7409 42.0702 22.9395C42.9976 23.2725 43.6609 23.7849 44.3757 24.7327C45.4576 26.1545 46.0758 27.4546 46.2497 28.6587C46.3141 29.0878 46.3077 29.2287 46.2175 29.6002C46.0758 30.183 45.9213 30.4135 45.5671 30.5672L45.2773 30.6953L45.039 30.5096C44.395 30.01 43.3969 29.613 42.3987 29.4721C41.7289 29.3696 41.3876 29.4464 40.9175 29.8051C40.325 30.247 40.0481 30.8682 40.2607 31.2717C40.4538 31.624 41.6195 31.9058 42.3987 31.7777C42.8108 31.7136 44.131 31.3358 44.5367 31.1693L44.7492 31.0796L45.1678 31.5087C46.0436 32.3989 46.5266 33.3788 46.6683 34.5316C46.7713 35.3962 46.3141 36.6323 45.6186 37.3624L45.3932 37.5994L45.1614 37.4841C44.3822 37.087 43.3067 37.1575 42.6756 37.6378C42.3472 37.8812 42.2956 38.0093 42.418 38.2718C42.6756 38.8034 43.3711 38.8354 44.3435 38.3551C44.6784 38.1886 44.9811 38.0541 45.0133 38.0541C45.1227 38.0541 46.1145 38.9827 46.4494 39.399C47.1706 40.2957 47.499 41.3332 47.3509 42.2554C47.0547 44.164 45.0068 45.3104 41.9157 45.3104C41.13 45.3104 40.8724 45.2848 40.8145 45.2207C40.7694 45.1695 40.6535 44.9261 40.5633 44.6763C40.2285 43.8181 39.8163 43.6132 39.211 44.0167C38.8439 44.2601 38.6507 44.5162 38.6507 44.7596C38.6507 45.0926 39.0306 45.336 39.8743 45.541L40.2929 45.6434L40.4345 46.1878C40.763 47.4175 40.7887 47.5584 40.763 48.0771C40.6921 49.3516 40.0159 49.8768 38.4575 49.8512C38.0325 49.8448 37.4851 49.7935 37.1695 49.7295L36.6286 49.6142L36.3645 49.2363C36.0747 48.8136 35.463 48.3653 35.1732 48.3653C34.98 48.3653 34.5099 48.6792 34.4004 48.8777C34.2329 49.1851 34.7997 49.6334 35.7399 49.9344C36.0232 50.0305 36.0941 50.0817 36.1713 50.2739C36.3581 50.7094 36.2557 51.2384 35.9144 51.7572L35.2124 52.5257L36.0683 51.8558C36.474 51.4651 36.6608 51.0937 36.7123 50.5813C36.7445 50.2995 36.7767 50.197 36.8411 50.2098C36.8926 50.2226 37.2532 50.2419 37.6461 50.2675C38.509 50.3059 39.0628 50.197 39.6489 49.8704C41.1751 49.0122 41.5486 48.0643 41.0721 46.2775L40.9304 45.7587L41.8642 45.7203C43.7639 45.6434 45.0326 45.2015 46.3012 44.1832C47.6021 43.1329 48.143 41.884 47.8275 40.6479C47.5699 39.6296 46.752 38.496 45.7989 37.8491C45.6379 37.7403 45.4963 37.6378 45.4834 37.625C45.4705 37.6186 45.6572 37.4072 45.902 37.1575C47.6278 35.409 47.6021 33.3148 45.8182 31.2333L45.4512 30.7978L45.6444 30.6633C46.7456 29.8755 47.0161 29.0686 46.6619 27.6596C46.5588 27.2433 46.1402 26.2442 45.844 25.6934C45.2837 24.6495 44.3886 23.6184 43.5707 23.0676C42.6563 22.4655 41.5357 22.1581 40.7308 22.299C40.4989 22.3375 40.3057 22.3631 40.2929 22.3503C40.2864 22.3375 40.2156 22.1325 40.1383 21.8891C39.636 20.3328 38.2965 18.8022 36.7381 18.0208C35.9266 17.6109 34.7997 17.2843 33.8981 17.201C33.473 17.1626 33.4151 17.169 33.2798 17.2971C33.1961 17.3804 33.1124 17.4188 33.0931 17.3868C32.9707 17.1882 32.2108 14.9595 32.2108 14.793C32.2108 14.7673 32.3783 14.8314 32.5779 14.9403C32.8999 15.1132 32.9772 15.1324 33.2992 15.094C33.4988 15.0748 33.911 15.0876 34.2201 15.126C35.2762 15.2541 35.9266 15.491 38.6829 16.7271C39.3204 17.0153 39.9451 17.2907 40.0675 17.3355C40.1898 17.3804 40.7694 17.6109 41.3554 17.8479C42.5275 18.3154 42.9654 18.4563 44.6462 18.8726C46.166 19.2569 46.9517 19.3722 47.7566 19.3401C48.5423 19.3081 48.845 19.18 49.1734 18.7253C49.4439 18.3603 49.5469 17.9952 49.5469 17.3932C49.5405 16.0867 48.4521 14.4535 46.7327 13.179C45.5671 12.3208 43.4677 11.4498 41.832 11.1488C41.2009 11.0271 40.8274 11.0015 39.7133 11.0015C38.9083 11.0015 38.1548 11.0335 37.8457 11.0848C35.5274 11.4562 33.6534 12.2952 32.4427 13.4992L31.979 13.9604L31.7472 13.2687L31.5218 12.5706L31.9597 12.609C32.5135 12.6539 32.8355 12.545 33.2476 12.1607C33.5954 11.8341 33.8208 11.3153 33.8466 10.7517C33.8659 10.4123 33.8852 10.361 34.1041 10.1881C34.7739 9.63733 34.8834 8.7407 34.3811 7.8889C34.2716 7.69677 33.956 7.3189 33.692 7.04992C33.3507 6.71048 33.1833 6.48632 33.1253 6.30059C32.9128 5.6025 31.9082 4.85317 30.588 4.42407C30.0664 4.25755 29.9247 4.23834 29.1648 4.23834H28.3276L27.9026 3.82845C27.5999 3.54665 27.3165 3.34811 26.9173 3.15598C26.2733 2.84856 26.1509 2.82295 25.3202 2.8934C24.9853 2.91901 24.5796 2.97665 24.4186 3.02149C23.8371 3.10218 22.9671 3.92132 22.6599 4.48619L22.4995 5.09014ZM24.1816 3.38974C24.5294 3.21042 25.4052 2.97345 25.7401 2.96705C25.9011 2.96064 26.2037 3.0375 26.4485 3.13356C26.6932 3.22963 27.0345 3.39615 27.2084 3.51143C27.5239 3.70997 27.9361 4.09424 27.8781 4.13267C27.8652 4.13907 27.7042 4.21593 27.5175 4.29918C26.9443 4.56177 26.339 5.26626 26.339 5.68256C26.339 5.77222 26.3325 5.84267 26.3261 5.84267C26.3132 5.84267 26.0878 5.63132 25.8173 5.37514C25.5533 5.11896 25.1991 4.84357 25.0381 4.77312C24.4907 4.51053 23.8661 4.52334 23.1577 4.79233C23.0804 4.82435 23.0675 4.79233 23.1126 4.64503C23.1448 4.54896 23.3876 3.99113 23.5756 3.87457L24.1816 3.38974ZM30.9306 4.36323C31.5488 4.52334 31.8837 4.69626 32.2701 5.04851C32.6372 5.39435 32.7788 5.67615 32.7917 6.07323C32.7981 6.57919 32.3602 6.99548 31.8064 6.99548C31.0207 6.99548 31.0336 6.1757 31.8193 5.94514C31.9996 5.8875 32.2379 5.86188 32.3474 5.8811C32.5406 5.90671 32.5341 5.90031 32.2958 5.81065C31.5424 5.50963 30.9692 5.56728 30.8082 5.94514C30.731 6.13087 30.731 6.19492 30.8082 6.37424C30.9821 6.79694 31.8129 7.3157 32.3087 7.3157C32.7788 7.3157 33.294 6.96346 33.294 6.64323C33.294 6.48952 33.3971 6.52795 33.6096 6.77773C34.4403 7.71278 34.582 8.69907 33.9831 9.34593C33.8156 9.53166 33.777 9.53166 33.6868 9.31391C33.616 9.14739 33.2039 8.66065 33.133 8.66065C33.1137 8.66065 33.1523 8.7375 33.2232 8.83357C33.4035 9.07694 33.5323 9.60211 33.4421 9.69177C33.3133 9.81986 32.6307 9.83907 32.2572 9.71739C31.7613 9.55728 31.5359 9.40357 31.3749 9.12177C31.1753 8.76312 31.1882 8.4493 31.4136 8.27638C31.5617 8.15469 31.6519 8.14188 32.0576 8.16109C32.3087 8.1739 32.5212 8.1739 32.5212 8.16109C32.5212 8.14829 32.3667 8.07143 32.1864 7.98817C31.6905 7.75761 30.9306 7.78963 30.7696 8.03941C30.4991 8.46211 31.4973 9.61492 32.4955 10.0376C32.6307 10.0953 32.9205 10.1593 33.133 10.1849C33.513 10.2297 33.5194 10.2297 33.5001 10.4219C33.4679 10.6781 33.191 11.2801 33.0171 11.4722C32.7917 11.7156 32.2765 11.9269 31.903 11.9269C31.581 11.9269 30.7567 11.7156 30.6923 11.6195C30.6794 11.5939 30.7181 11.4146 30.7825 11.2224C31.0272 10.4987 30.6794 9.74941 29.8358 9.20503C29.6297 9.07053 29.4494 8.95525 29.443 8.94244C29.3786 8.89761 29.6748 8.5966 29.8487 8.52615C30.3059 8.33402 30.6537 7.89851 30.6537 7.50143C30.6537 7.03391 30.0998 6.44469 29.4816 6.26537L29.2047 6.18211L29.1661 5.73379C29.121 5.27907 29.018 5.01008 28.7346 4.63862C28.6444 4.52334 28.5865 4.42087 28.5994 4.40806C28.7926 4.21593 30.2415 4.19031 30.9306 4.36323ZM28.6187 4.86278C28.8505 5.52885 28.7153 6.16289 28.2581 6.592C27.8008 7.0211 27.0667 7.01469 26.8799 6.57919C26.5966 5.89391 27.0409 5.10615 27.9811 4.63862C28.4255 4.41446 28.4706 4.43368 28.6187 4.86278ZM25.4696 5.20222C25.7079 5.3175 25.8238 5.42638 25.9139 5.61211C26.0749 5.93233 26.1136 6.38065 26.0234 6.72649C25.9333 7.05312 25.6048 7.44379 25.4116 7.44379C25.3408 7.4502 25.2056 7.48862 25.1154 7.53986C24.9158 7.65514 24.6389 7.65514 24.3297 7.54626C24.1945 7.49503 24.0979 7.48222 24.1172 7.50784C24.1559 7.56548 24.8127 7.89211 24.9029 7.89211C24.9351 7.89211 25.0381 7.97536 25.1347 8.07143L25.315 8.25716L25.0832 8.49413C24.89 8.69907 24.8063 8.7375 24.5101 8.76952C23.8017 8.83997 22.8486 8.55177 22.5459 8.1739C22.211 7.75121 22.2175 7.11076 22.5459 6.41267L22.7391 6.00919L22.9001 6.28458C23.0933 6.63042 23.2672 6.83537 23.6342 7.15559C23.8983 7.38615 23.8725 7.32851 23.5505 6.96986C23.3895 6.78413 23.1319 6.23975 23.0675 5.92593C23.0096 5.66334 23.0096 5.65694 23.2929 5.45199C23.7695 5.11896 24.1172 5.01008 24.6646 5.0293C25.0252 5.04211 25.2313 5.08053 25.4696 5.20222ZM26.7318 6.61761C26.8155 6.69447 26.9572 6.80334 27.0345 6.87379C27.1762 6.98267 27.1826 7.00188 27.086 7.12997C27.0023 7.25166 27.0023 7.29649 27.0796 7.44379C27.2406 7.75761 27.8201 8.13548 28.7217 8.51334L28.8827 8.58379L28.6895 8.66065C28.1164 8.8848 27.0345 8.89121 26.5901 8.67345C26.4034 8.57739 26.3712 8.53896 26.3905 8.36604C26.4034 8.22514 26.3647 8.10986 26.2424 7.96896L26.0749 7.77042L26.281 7.50784C26.4549 7.29649 26.5 7.18121 26.5193 6.86739C26.5322 6.65604 26.5515 6.48312 26.5644 6.48312C26.5708 6.48312 26.6481 6.54076 26.7318 6.61761ZM30.0097 6.65604C30.2802 7.00188 30.087 7.78323 29.6748 8.0202C29.5074 8.10986 29.4881 8.10345 29.2305 7.86008C29.0244 7.66154 28.9858 7.64233 29.0695 7.77682C29.1339 7.87289 29.1725 8.01379 29.1596 8.09705C29.1403 8.23154 29.1081 8.24435 28.7539 8.23795C28.213 8.23154 27.6205 7.98817 27.5303 7.7384C27.4788 7.58469 27.4917 7.53986 27.6269 7.43098C27.8008 7.29008 28.1486 7.3093 28.5672 7.48222C28.8892 7.61671 28.902 7.55907 28.5865 7.38615L28.3289 7.23885L28.5865 7.07233C28.7282 6.98267 28.8956 6.81615 28.9536 6.70087C29.063 6.49593 29.0824 6.48952 29.4752 6.48952C29.8294 6.48952 29.8938 6.50874 30.0097 6.65604ZM25.8882 7.96896C25.8882 8.11626 25.7787 8.22514 25.6628 8.19952C25.4825 8.1675 25.4696 8.0266 25.6435 7.96255C25.8495 7.8793 25.8882 7.8793 25.8882 7.96896ZM23.9562 8.97447C24.2203 9.05132 24.5165 9.10896 24.6131 9.10896C24.7805 9.10896 24.7934 9.12817 24.7934 9.34593C24.7999 9.66615 24.9608 10.012 25.3601 10.5308L25.6886 10.9599L25.4503 11.0431C25.3086 11.0944 24.9544 11.1264 24.568 11.12C23.5119 11.1072 22.9516 10.8126 22.591 10.0889C22.3656 9.62773 22.3205 9.11537 22.4686 8.60941L22.5459 8.34042L23.0096 8.5902C23.2672 8.7311 23.6922 8.90402 23.9562 8.97447ZM26.5773 9.10256C26.6932 9.37795 26.661 9.95436 26.5064 10.249C26.3969 10.4603 26.2102 10.6589 25.9719 10.819C25.8367 10.9086 25.8173 10.9086 25.695 10.7677C25.373 10.3835 25.2056 9.52525 25.3923 9.17941C25.4374 9.09615 25.5791 8.99368 25.7207 8.94885C25.856 8.89761 25.9977 8.83357 26.0299 8.80154C26.1522 8.67986 26.4742 8.85278 26.5773 9.10256ZM27.8523 9.15379L28.4384 9.19222L28.5543 9.47402C28.7088 9.83907 29.1146 10.3835 29.6619 10.9663L30.0998 11.4274L29.9453 11.5491C29.5331 11.8629 29.2305 11.9526 28.4641 11.9782C27.833 12.0038 27.6656 11.9846 27.3114 11.8629C26.8477 11.7092 26.1651 11.2993 26.2488 11.2289C26.281 11.2032 26.4163 11.1072 26.5515 11.0047C27.0152 10.6653 27.2406 9.86469 27.0216 9.33952C26.8864 9.0193 26.8864 9.0257 27.0989 9.07053C27.1955 9.09615 27.5368 9.12817 27.8523 9.15379ZM30.087 9.47402C30.4283 9.79424 30.5635 10.5692 30.3574 11.0047C30.2093 11.3121 30.1642 11.3185 29.9067 11.1264C29.3271 10.6909 28.8183 9.78143 28.9664 9.4548C29.1146 9.14098 29.7392 9.15379 30.087 9.47402ZM41.5885 12.5033C43.205 12.7275 44.1194 12.9965 45.4975 13.6562C46.9787 14.3606 47.9898 15.0587 48.8463 15.9746C49.0974 16.2372 49.3679 16.5894 49.4516 16.7559C49.5997 17.0569 49.5997 17.0633 49.4903 17.3451C49.3486 17.723 49.033 18.0176 48.608 18.1713C48.3182 18.2802 48.1121 18.2994 47.2363 18.293C46.032 18.2866 45.3043 18.1777 43.6622 17.7358C42.4579 17.4156 40.7192 16.8456 40.0559 16.5574C39.9335 16.5062 39.3797 16.2948 38.8323 16.0899C38.2849 15.8849 37.3511 15.5263 36.7587 15.2957C35.168 14.6809 34.5627 14.54 33.4228 14.5144C32.9076 14.4951 32.489 14.4695 32.489 14.4375C32.5019 14.3222 33.4615 13.7586 34.157 13.464C36.559 12.4457 38.9482 12.1383 41.5885 12.5033ZM40.0237 23.1732C40.146 23.8201 40.1396 24.9857 40.0172 25.2035C39.9528 25.3123 39.9399 25.3123 39.7789 25.1843C39.6888 25.1138 39.5149 24.864 39.4054 24.6335C39.0062 23.8265 39.1092 22.8082 39.618 22.5904C39.7339 22.5456 39.8498 22.52 39.8691 22.5328C39.8949 22.5456 39.9657 22.8338 40.0237 23.1732ZM42.6962 29.7635C43.3853 29.93 44.1323 30.2502 44.4607 30.5192L44.6475 30.6729L43.9133 30.8843C43.2822 31.07 43.0762 31.102 42.4708 31.102C41.537 31.1084 41.1635 30.9611 40.9124 30.4808C40.8029 30.2694 40.848 29.8467 41.0025 29.6994C41.1506 29.5457 41.917 29.5777 42.6962 29.7635ZM44.5058 37.5193C45.0017 37.6602 45.021 37.7115 44.6539 37.8716C44.2933 38.0317 43.7201 38.0637 43.469 37.9292C43.2436 37.8139 43.0182 37.6026 43.0182 37.5001C43.0182 37.3784 44.055 37.3912 44.5058 37.5193ZM39.7468 44.0711C39.8305 44.1416 39.985 44.3465 40.0816 44.5258L40.2619 44.8589L40.1138 44.814C39.6244 44.6603 39.2187 44.3273 39.2187 44.0711C39.2187 43.9046 39.5342 43.911 39.7468 44.0711ZM35.387 48.7528C35.5222 48.9001 35.4127 48.9257 35.2646 48.7784C35.1487 48.6695 35.1358 48.6247 35.2131 48.6247C35.2453 48.6247 35.3226 48.6824 35.387 48.7528Z" fill="#2D0C57"/>
<path d="M13.5108 7.34776C11.4178 7.64236 9.58247 8.5454 8.14638 9.9736C6.87773 11.2481 6.11783 12.7532 6.11783 14.0084C6.11783 14.6937 6.25951 15.0844 6.63946 15.4558C7.12889 15.9298 7.4702 16.1027 7.98539 16.1411C8.60361 16.186 9.16388 16.0451 11.1087 15.3534C13.5945 14.476 14.1934 14.2966 15.7776 13.9828C17.1557 13.7074 17.8706 13.6306 19.1263 13.6306C20.176 13.6306 21.3803 13.7458 21.3803 13.8419C21.3803 13.8611 21.2837 14.0276 21.1613 14.2006C19.7639 16.2692 18.7013 18.3507 18.1539 20.0927C17.7868 21.2519 17.6001 22.8018 17.6902 23.9354L17.7418 24.6399L17.7804 23.6792C17.8255 22.5072 17.9092 21.9308 18.199 20.9253C18.8687 18.5876 19.751 16.9993 22.8357 12.5546C23.4153 11.7092 23.441 11.6644 23.4024 11.4146C23.3766 11.2737 23.3444 11.1456 23.3187 11.1328C23.2994 11.12 23.119 11.3378 22.9258 11.6196C22.6296 12.0487 22.5717 12.1063 22.5523 11.9846C22.3913 10.4539 21.4447 9.26911 19.6544 8.35326C18.8172 7.92416 17.9994 7.64236 17.0334 7.43742C16.1962 7.2645 14.4124 7.21967 13.5108 7.34776ZM15.578 9.04495C17.0398 9.19866 18.3729 9.58293 19.5771 10.2042C20.7363 10.7998 21.7152 11.6452 22.0951 12.3945C22.2368 12.6635 22.2432 12.6379 21.8568 13.1823L21.5864 13.5665L20.9166 13.4769C20.4529 13.4192 19.8347 13.4 18.8687 13.4192C17.3296 13.4512 16.5053 13.5729 14.4639 14.0469C13.2081 14.3351 13.1566 14.3479 11.4951 14.8282C9.17032 15.4943 7.54748 15.7953 7.01941 15.648C6.68454 15.5519 6.74893 14.7321 7.16752 13.8291C8.02403 11.9846 9.96886 10.2362 11.9974 9.49326C13.2081 9.05135 14.2964 8.91045 15.578 9.04495Z" fill="#2D0C57"/>
<path d="M28.0842 13.9572C27.8845 14.2006 27.8523 14.3735 27.8523 15.1612C27.8523 15.744 27.8781 15.917 27.9876 16.1667C28.3547 16.9481 28.8054 16.4037 28.799 15.1933C28.799 14.4375 28.5414 13.7843 28.2452 13.7843C28.2323 13.7843 28.155 13.8611 28.0842 13.9572Z" fill="#2D0C57"/>
<path d="M26.0556 14.0596C25.6564 14.4567 25.6821 16.0963 26.1007 16.5382C26.5 16.9737 26.8799 15.9938 26.7318 14.905C26.6159 14.0917 26.3519 13.765 26.0556 14.0596Z" fill="#2D0C57"/>
<path d="M19.9957 14.4952C17.1751 14.841 15.8485 15.1548 14.6506 15.7568C14.2449 15.9554 13.4593 16.4485 13.4593 16.4997C13.4593 16.5125 13.7555 16.3717 14.1226 16.1859C14.4832 16.0066 15.1014 15.7632 15.4878 15.6544C16.1898 15.4494 18.8301 14.9755 19.7124 14.8986C20.0601 14.8602 20.2147 14.8154 20.3564 14.7001C20.5302 14.5528 20.6011 14.4119 20.498 14.4311C20.4658 14.4375 20.2469 14.4631 19.9957 14.4952Z" fill="#2D0C57"/>
<path d="M12.4547 17.3836C11.7592 18.0945 11.6175 18.3186 11.508 18.8438L11.4307 19.2409L10.8833 19.4138C9.57604 19.8365 8.29451 20.7075 7.90168 21.4376C7.63765 21.9244 7.74712 22.8658 8.13352 23.4102C8.19791 23.5127 8.24943 23.6023 8.23655 23.6151C8.22367 23.6215 7.93388 23.8137 7.59901 24.0378C6.89706 24.499 5.66061 25.6902 5.37726 26.1641C4.52076 27.6308 4.47568 29.2255 5.24846 30.8458C5.33862 31.0315 5.50605 31.2941 5.62841 31.435L5.85381 31.6976L5.61553 31.8065C5.33862 31.941 4.41128 32.5302 4.35976 32.6134C4.334 32.6455 4.54008 32.5558 4.67531 32.4725C4.98443 32.2804 5.9504 31.8705 6.22732 31.8129C6.3368 31.7937 6.52999 31.6912 6.64591 31.5823C6.84554 31.4094 6.85198 31.3966 6.71031 31.3966C6.3046 31.3966 5.58977 30.295 5.33862 29.2831C5.15186 28.5594 5.1905 27.4322 5.4159 26.7533C5.80873 25.6005 6.83266 24.4926 8.10132 23.8457L8.35247 23.7176L8.50703 23.8841C8.83546 24.2364 9.71128 24.7359 9.99463 24.7359C10.2265 24.7359 10.7133 24.5246 10.7842 24.2876C10.8486 24.0314 10.6966 23.5639 10.439 23.3013C10.1943 23.058 9.75636 23.0067 9.24117 23.1732L8.8741 23.2821L8.75174 23.1284C8.54567 22.8594 8.35891 22.4111 8.28807 22.014C8.20435 21.5273 8.34603 20.9893 8.63582 20.6947C8.91918 20.4065 9.76924 20.035 10.7417 19.7725L11.5917 19.5419L11.8042 19.7532C12.0618 20.0158 12.4031 20.1247 12.9376 20.1247C13.5494 20.1247 13.8714 20.0158 14.2321 19.6956C14.4124 19.5355 14.3937 19.4394 14.3937 19.4074C14.3937 19.369 14.2836 19.2223 14.1548 19.1647C13.968 19.0814 13.8392 19.0744 13.0729 19.0616L12.0747 19.0487L11.9845 18.8374C11.8171 18.4211 12.0554 17.8767 12.7123 17.1914C12.9183 16.9737 13.4786 16.4998 13.4593 16.4998C13.4464 16.4998 12.7702 17.0634 12.4547 17.3836ZM13.8006 19.5419C14.2965 19.7276 13.485 19.8173 12.8926 19.6444C12.3709 19.4907 12.4675 19.3946 13.0922 19.4394C13.382 19.4586 13.704 19.5035 13.8006 19.5419ZM9.88516 23.7176C10.014 23.8329 10.1621 24.0058 10.2136 24.1019C10.2973 24.2684 10.2973 24.2876 10.2071 24.2876C10.0719 24.2876 9.47945 23.9033 9.27981 23.6856L9.12525 23.5191H9.38929C9.59536 23.5191 9.70484 23.5639 9.88516 23.7176Z" fill="#2D0C57"/>
<path d="M35.0907 24.0763C35.0843 24.1403 35.0907 24.2556 35.0907 24.3325C35.1101 24.5566 34.9619 25.7671 34.8718 26.177C34.1827 29.1358 32.1026 31.5183 29.4623 32.3765C28.6058 32.6583 28.0713 32.7416 27.1311 32.7416C23.4668 32.7416 19.8927 30.3079 18.3536 26.7662C18.0573 26.0809 18.0122 26.1642 18.2827 26.8943C18.7528 28.1495 19.2358 28.9949 20.0215 29.9364C21.3867 31.576 23.3187 32.7416 25.4825 33.2283C26.0814 33.3628 27.7429 33.4204 28.4062 33.318C29.3979 33.1771 30.4734 32.748 31.4587 32.1139C32.0382 31.7361 33.2489 30.5384 33.6353 29.9492C34.2858 28.9629 34.7559 27.8549 34.9748 26.7854C35.0972 26.1834 35.226 23.9674 35.1423 23.9674C35.1165 23.9674 35.0972 24.0186 35.0907 24.0763Z" fill="#2D0C57"/>
<path d="M31.6969 26.9263C31.6519 26.9711 31.6197 27.1184 31.6197 27.2593C31.6197 27.7653 31.259 28.1303 30.7374 28.1623C30.5635 28.1687 30.3896 28.1816 30.351 28.1816C30.2029 28.2008 30.2608 28.5594 30.4347 28.7708C30.6794 29.0526 31.0401 29.2191 31.4265 29.2191C32.0447 29.2191 32.3924 28.9437 32.489 28.3737C32.5406 28.0791 32.4762 27.5411 32.3731 27.4002C32.3087 27.3169 32.2958 27.4002 32.2958 27.8037C32.2958 28.22 32.2701 28.3481 32.1606 28.4954C31.8772 28.886 31.2139 29.0269 30.7052 28.7964C30.2802 28.6043 30.409 28.4505 30.9886 28.4505C31.2655 28.4505 31.3363 28.4249 31.5231 28.2392C31.6454 28.1175 31.7549 27.951 31.7678 27.8677C31.8966 27.2081 31.903 27.2017 32.0962 27.2145L32.283 27.2273L32.1026 27.0415C31.903 26.8302 31.8129 26.811 31.6969 26.9263Z" fill="#2D0C57"/>
<path d="M21.1935 27.0031C21.1485 27.0544 21.1034 27.2017 21.0776 27.3426C21.0454 27.5795 21.0454 27.5859 21.1485 27.4386C21.3352 27.1953 21.6379 27.2913 21.6379 27.5923C21.6379 27.8037 21.9341 28.1175 22.211 28.2008C22.3785 28.252 22.5459 28.252 22.752 28.2136C23.3251 28.0855 23.3058 28.316 22.7133 28.6106C22.0243 28.9501 21.5026 28.7772 21.1807 28.1111L20.9875 27.714L21.0197 28.0214C21.0647 28.4057 21.1742 28.6235 21.4898 28.9181C21.6958 29.123 21.7731 29.155 22.0307 29.155C22.6425 29.155 23.3122 28.6363 23.3122 28.1623C23.3122 27.8613 23.2092 27.8037 22.7262 27.8485C22.1015 27.9062 21.7989 27.7204 21.6443 27.1824C21.5864 26.9647 21.5413 26.9135 21.4189 26.9135C21.3352 26.9135 21.2322 26.9519 21.1935 27.0031Z" fill="#2D0C57"/>
<path d="M4.79058 32.3957C3.99203 33.1835 3.58632 33.9648 3.41889 35.0856C3.12265 37.0005 4.14659 39.3894 5.57624 40.1131C6.34902 40.5102 7.36008 40.6639 8.50637 40.555C9.56895 40.4526 9.49167 40.4397 9.36932 40.7215C8.93784 41.6886 8.77041 43.1424 8.98292 44.0775C9.16324 44.8973 9.64623 45.717 10.1357 46.0437C10.6444 46.3831 11.0437 46.4664 12.1127 46.4728H12.9628C13.0606 46.4728 13.1572 46.4529 13.2474 46.4139L13.6589 46.2358C14.1612 46.0245 14.6893 45.7491 14.6893 45.7042C14.6893 45.6978 14.4381 45.7747 14.129 45.8836C13.6589 46.0437 13.4335 46.0821 12.8217 46.1077C11.9523 46.1397 11.508 46.0629 10.9606 45.7939C10.278 45.4545 9.72415 44.6667 9.49876 43.7124C9.33132 43.0079 9.40216 41.7078 9.64043 40.9713L9.70097 40.7907C9.78275 40.5467 9.99141 40.3655 10.2458 40.3181C10.7803 40.2156 11.2955 40.0235 11.6625 39.7801C11.9781 39.5687 11.9845 39.5303 11.6754 39.6904C11.4565 39.7929 10.1299 40.0683 10.0783 40.017C9.98819 39.9274 10.6772 38.8899 10.9735 38.6721C11.4629 38.307 12.3194 38.3006 12.4096 38.6593C12.4611 38.8578 12.0174 39.4221 11.8821 39.595C11.8242 39.6654 12.3387 39.2485 12.5577 39.0244C12.8797 38.6977 12.9505 38.5824 12.9505 38.4095C12.9505 37.8331 12.1391 37.8075 11.3148 38.3583C10.8254 38.6849 10.2329 39.2613 9.93023 39.7096C9.62755 40.1515 9.58891 40.1644 8.49414 40.1644C6.45914 40.1644 5.26777 39.4919 4.47567 37.8908C4.03776 37.0005 3.9154 36.4626 3.90896 35.361C3.90896 34.6565 3.93472 34.3299 4.02488 34.016C4.19231 33.4076 4.55295 32.7672 4.99086 32.306C5.19693 32.0819 5.35149 31.9026 5.33217 31.9026C5.31285 31.9026 5.06749 32.1267 4.79058 32.3957Z" fill="#2D0C57"/>
<path d="M14.4768 45.8708C13.7748 46.4472 13.3434 48.1252 13.6138 49.2011C13.9036 50.3603 14.7215 51.3338 15.8871 51.923L16.2542 52.1023L16.003 52.192C15.7132 52.2945 15.5393 52.429 15.4814 52.6211C15.4363 52.7556 14.9598 53.5626 14.348 54.5297C14.1805 54.805 14.0389 55.0997 14.0389 55.1893V55.3494H18.0316C20.2276 55.3494 22.0243 55.3302 22.0243 55.2982C22.0243 55.2726 21.8955 55.0292 21.7345 54.7602C21.5735 54.4848 21.4447 54.2543 21.4447 54.2414C21.4447 54.2222 21.3288 54.0109 21.1871 53.7739C21.0454 53.5306 20.9295 53.2808 20.9295 53.2103C20.9295 53.1463 20.8522 52.9926 20.7621 52.8709C20.5753 52.6275 20.5624 52.6403 21.2193 52.5314C22.1917 52.3649 23.5119 51.8398 24.5616 51.2057C24.6904 51.1225 24.7548 51.1161 24.7741 51.1673C24.787 51.2057 24.89 51.3722 24.9995 51.5388C25.592 52.4226 27.1955 53.1143 29.2627 53.3704L29.9002 53.4473L29.6748 53.5626C29.4237 53.6907 29.1725 53.9661 29.1725 54.107C29.1725 54.1518 29.0824 54.3888 28.9729 54.6257C28.8634 54.8691 28.7475 55.1253 28.7153 55.2021L28.6573 55.3494H32.5534C34.6979 55.3494 36.4495 55.3302 36.4495 55.311C36.4495 55.2918 36.1726 54.9011 35.8313 54.44C35.4964 53.9725 35.1744 53.5177 35.1229 53.4153C35.0006 53.1847 34.4532 53.0118 33.9766 53.0694C33.6933 53.1014 33.674 53.095 33.8092 53.031C35.3097 52.3393 35.8056 52.0511 34.8203 52.4418C33.777 52.8581 32.0254 53.095 30.6215 53.0182C29.121 52.9285 27.511 52.5571 26.6867 52.1023C26.2875 51.8846 25.6242 51.2377 25.4503 50.8919L25.315 50.6293L25.6306 50.3219C25.9526 50.0017 26.2939 49.4445 26.3647 49.105C26.4935 48.503 25.7594 48.5479 25.1798 49.1819C24.7741 49.611 24.6517 49.944 24.6711 50.5332L24.6904 51.0264L24.2847 51.2377C23.6729 51.5644 22.6489 51.9294 21.8955 52.0895C20.9939 52.2817 19.1328 52.3009 18.2634 52.128C17.0334 51.8782 15.9322 51.3402 15.198 50.6165C14.6378 50.0593 14.3995 49.7071 14.1934 49.0986C13.8843 48.1828 14.0067 47.0364 14.5154 46.0821C14.6378 45.858 14.7279 45.6786 14.7215 45.6786C14.715 45.6786 14.6056 45.7683 14.4768 45.8708ZM25.7594 49.4445C25.7594 49.8736 25.6564 50.1746 25.4438 50.3795L25.2635 50.5525L25.1862 50.2643C25.0961 49.912 25.0961 49.8095 25.1862 49.5021C25.2764 49.1627 25.4632 48.9834 25.6306 49.073C25.7336 49.1243 25.7594 49.2075 25.7594 49.4445Z" fill="#2D0C57"/>
<path d="M75.532 19.986C75.688 19.986 75.808 20.058 75.892 20.202C75.988 20.346 76.036 20.544 76.036 20.796C76.036 21.264 75.922 21.636 75.694 21.912C74.506 23.364 73.24 24.09 71.896 24.09C70.732 24.09 69.802 23.64 69.106 22.74C68.41 21.84 68.062 20.55 68.062 18.87C68.062 18.462 68.08 18.054 68.116 17.646C67.324 17.79 66.46 17.898 65.524 17.97C64.9 18.018 64.474 18.048 64.246 18.06C64.006 19.284 63.67 20.784 63.238 22.56C62.986 23.604 62.506 24.126 61.798 24.126C61.03 24.126 60.646 23.778 60.646 23.082C60.646 22.926 60.676 22.71 60.736 22.434C61.144 20.79 61.468 19.398 61.708 18.258L60.844 18.294C60.448 18.294 60.16 18.228 59.98 18.096C59.8 17.952 59.71 17.724 59.71 17.412C59.71 17.016 59.824 16.728 60.052 16.548C60.28 16.356 60.658 16.248 61.186 16.224L62.14 16.188C62.452 14.496 62.608 13.206 62.608 12.318C62.608 11.754 62.524 11.37 62.356 11.166C62.188 10.962 61.966 10.86 61.69 10.86C60.85 10.86 59.902 11.562 58.846 12.966C58.69 13.17 58.516 13.272 58.324 13.272C58.156 13.272 58.012 13.194 57.892 13.038C57.772 12.882 57.712 12.684 57.712 12.444C57.712 12.072 57.862 11.676 58.162 11.256C58.69 10.524 59.356 9.924 60.16 9.456C60.964 8.976 61.78 8.736 62.608 8.736C63.388 8.736 63.988 9.006 64.408 9.546C64.84 10.074 65.056 10.902 65.056 12.03C65.056 13.026 64.912 14.376 64.624 16.08L66.388 15.99C67.144 15.954 67.792 15.894 68.332 15.81C68.548 14.49 68.878 13.254 69.322 12.102C69.766 10.95 70.318 10.014 70.978 9.294C71.638 8.574 72.376 8.214 73.192 8.214C73.792 8.214 74.266 8.454 74.614 8.934C74.962 9.402 75.136 10.02 75.136 10.788C75.136 13.764 73.618 15.828 70.582 16.98C70.546 17.46 70.528 17.958 70.528 18.474C70.528 19.734 70.684 20.628 70.996 21.156C71.308 21.684 71.746 21.948 72.31 21.948C72.802 21.948 73.252 21.822 73.66 21.57C74.068 21.306 74.53 20.862 75.046 20.238C75.19 20.07 75.352 19.986 75.532 19.986ZM73.102 9.78C72.838 9.78 72.556 10.02 72.256 10.5C71.968 10.98 71.692 11.634 71.428 12.462C71.164 13.29 70.954 14.196 70.798 15.18C71.758 14.784 72.466 14.22 72.922 13.488C73.378 12.756 73.606 11.814 73.606 10.662C73.606 10.386 73.558 10.17 73.462 10.014C73.366 9.858 73.246 9.78 73.102 9.78ZM84.9447 19.986C85.1007 19.986 85.2207 20.058 85.3047 20.202C85.4007 20.346 85.4487 20.544 85.4487 20.796C85.4487 21.276 85.3347 21.648 85.1067 21.912C84.6627 22.452 84.0327 22.95 83.2167 23.406C82.4127 23.862 81.5487 24.09 80.6247 24.09C79.3647 24.09 78.3867 23.748 77.6907 23.064C76.9947 22.38 76.6467 21.444 76.6467 20.256C76.6467 19.428 76.8207 18.66 77.1687 17.952C77.5167 17.232 77.9967 16.662 78.6087 16.242C79.2327 15.822 79.9347 15.612 80.7147 15.612C81.4107 15.612 81.9687 15.822 82.3887 16.242C82.8087 16.65 83.0187 17.208 83.0187 17.916C83.0187 18.744 82.7187 19.458 82.1187 20.058C81.5307 20.646 80.5287 21.114 79.1127 21.462C79.4127 22.014 79.9827 22.29 80.8227 22.29C81.3627 22.29 81.9747 22.104 82.6587 21.732C83.3547 21.348 83.9547 20.85 84.4587 20.238C84.6027 20.07 84.7647 19.986 84.9447 19.986ZM80.4087 17.376C79.9647 17.376 79.5867 17.634 79.2747 18.15C78.9747 18.666 78.8247 19.29 78.8247 20.022V20.058C79.5327 19.89 80.0907 19.638 80.4987 19.302C80.9067 18.966 81.1107 18.576 81.1107 18.132C81.1107 17.904 81.0447 17.724 80.9127 17.592C80.7927 17.448 80.6247 17.376 80.4087 17.376Z" fill="#2D0C57"/>
<path d="M77.302 38.09C76.126 38.09 75.208 37.76 74.548 37.1C73.9 36.428 73.576 35.546 73.576 34.454C73.576 33.482 73.768 32.63 74.152 31.898C74.536 31.166 75.034 30.602 75.646 30.206C76.258 29.81 76.9 29.612 77.572 29.612C78.232 29.612 78.742 29.81 79.102 30.206C79.474 30.59 79.66 31.088 79.66 31.7C79.66 32.204 79.546 32.63 79.318 32.978C79.102 33.326 78.814 33.5 78.454 33.5C78.226 33.5 78.04 33.446 77.896 33.338C77.764 33.23 77.698 33.08 77.698 32.888C77.698 32.804 77.71 32.708 77.734 32.6C77.758 32.492 77.776 32.414 77.788 32.366C77.848 32.186 77.878 32.018 77.878 31.862C77.878 31.706 77.836 31.586 77.752 31.502C77.68 31.418 77.572 31.376 77.428 31.376C77.152 31.376 76.894 31.502 76.654 31.754C76.414 31.994 76.222 32.324 76.078 32.744C75.934 33.164 75.862 33.626 75.862 34.13C75.862 35.522 76.468 36.218 77.68 36.218C78.172 36.218 78.7 36.056 79.264 35.732C79.84 35.396 80.404 34.898 80.956 34.238C81.1 34.07 81.262 33.986 81.442 33.986C81.598 33.986 81.718 34.058 81.802 34.202C81.898 34.346 81.946 34.544 81.946 34.796C81.946 35.252 81.832 35.624 81.604 35.912C81.04 36.608 80.362 37.148 79.57 37.532C78.79 37.904 78.034 38.09 77.302 38.09ZM91.453 33.986C91.609 33.986 91.729 34.058 91.813 34.202C91.909 34.346 91.957 34.544 91.957 34.796C91.957 35.24 91.843 35.612 91.615 35.912C91.051 36.656 90.343 37.238 89.491 37.658C88.639 38.066 87.787 38.27 86.935 38.27C85.915 38.27 85.135 38.06 84.595 37.64C84.067 37.208 83.803 36.572 83.803 35.732C83.803 34.916 84.067 34.202 84.595 33.59C85.135 32.966 85.909 32.306 86.917 31.61C86.701 31.694 86.431 31.736 86.107 31.736C85.723 31.736 85.387 31.634 85.099 31.43C84.823 31.226 84.607 30.92 84.451 30.512C84.151 31.856 83.761 32.912 83.281 33.68C82.849 34.376 82.441 34.946 82.057 35.39C81.685 35.822 81.253 36.278 80.761 36.758C80.545 36.974 80.317 37.082 80.077 37.082C79.885 37.082 79.729 37.016 79.609 36.884C79.489 36.74 79.429 36.566 79.429 36.362C79.429 36.122 79.513 35.9 79.681 35.696L80.149 35.138C80.737 34.478 81.175 33.902 81.463 33.41C81.727 32.966 81.973 32.474 82.201 31.934C82.441 31.382 82.687 30.656 82.939 29.756C83.167 28.952 83.659 28.55 84.415 28.55C84.955 28.55 85.333 28.796 85.549 29.288C85.681 29.576 85.843 29.792 86.035 29.936C86.239 30.068 86.551 30.134 86.971 30.134C87.175 30.134 87.379 30.11 87.583 30.062C87.787 30.014 87.967 29.96 88.123 29.9C88.291 29.84 88.399 29.804 88.447 29.792C88.795 29.648 89.047 29.576 89.203 29.576C89.407 29.576 89.569 29.636 89.689 29.756C89.809 29.876 89.869 30.056 89.869 30.296C89.869 30.848 89.653 31.292 89.221 31.628C88.057 32.528 87.235 33.248 86.755 33.788C86.287 34.316 86.053 34.844 86.053 35.372C86.053 35.972 86.425 36.272 87.169 36.272C87.733 36.272 88.381 36.092 89.113 35.732C89.845 35.36 90.463 34.862 90.967 34.238C91.099 34.07 91.261 33.986 91.453 33.986ZM92.3113 38.09C91.7713 38.09 91.3273 37.844 90.9793 37.352C90.6433 36.848 90.4753 36.224 90.4753 35.48C90.4753 34.58 90.5353 33.758 90.6553 33.014C90.7753 32.258 90.9733 31.46 91.2493 30.62C91.3693 30.26 91.5373 30.002 91.7533 29.846C91.9693 29.69 92.3113 29.612 92.7793 29.612C93.0433 29.612 93.2233 29.654 93.3193 29.738C93.4273 29.822 93.4813 29.948 93.4813 30.116C93.4813 30.212 93.4153 30.536 93.2833 31.088C93.1633 31.532 93.0673 31.934 92.9953 32.294C92.7553 33.554 92.6353 34.394 92.6353 34.814C92.6353 35.066 92.6653 35.246 92.7253 35.354C92.7853 35.45 92.8813 35.498 93.0133 35.498C93.1933 35.498 93.4153 35.318 93.6793 34.958C93.9553 34.598 94.2433 34.052 94.5433 33.32C94.8553 32.588 95.1553 31.688 95.4433 30.62C95.5393 30.26 95.6833 30.002 95.8753 29.846C96.0793 29.69 96.3793 29.612 96.7753 29.612C97.0513 29.612 97.2433 29.648 97.3513 29.72C97.4593 29.78 97.5133 29.9 97.5133 30.08C97.5133 30.38 97.3633 31.202 97.0633 32.546C96.7273 34.082 96.5593 35.03 96.5593 35.39C96.5593 35.618 96.6073 35.798 96.7033 35.93C96.7993 36.05 96.9253 36.11 97.0813 36.11C97.3213 36.11 97.6033 35.966 97.9273 35.678C98.2633 35.378 98.7073 34.898 99.2593 34.238C99.4033 34.07 99.5653 33.986 99.7453 33.986C99.9013 33.986 100.021 34.058 100.105 34.202C100.201 34.346 100.249 34.544 100.249 34.796C100.249 35.276 100.135 35.648 99.9073 35.912C99.3913 36.548 98.8333 37.07 98.2333 37.478C97.6453 37.886 96.9733 38.09 96.2173 38.09C95.6413 38.09 95.2153 37.868 94.9393 37.424C94.6753 36.98 94.5433 36.356 94.5433 35.552C94.3393 36.368 94.0333 36.998 93.6253 37.442C93.2173 37.874 92.7793 38.09 92.3113 38.09ZM100.068 38.09C99.6118 38.09 99.2878 37.85 99.0958 37.37C98.9158 36.89 98.8258 36.122 98.8258 35.066C98.8258 33.506 99.0478 32.024 99.4918 30.62C99.5998 30.272 99.7738 30.02 100.014 29.864C100.266 29.696 100.614 29.612 101.058 29.612C101.298 29.612 101.466 29.642 101.562 29.702C101.658 29.762 101.706 29.876 101.706 30.044C101.706 30.236 101.616 30.668 101.436 31.34C101.316 31.82 101.22 32.24 101.148 32.6C101.076 32.948 101.016 33.386 100.968 33.914C101.292 32.978 101.676 32.186 102.12 31.538C102.576 30.89 103.038 30.41 103.506 30.098C103.986 29.774 104.436 29.612 104.856 29.612C105.276 29.612 105.57 29.708 105.738 29.9C105.918 30.092 106.008 30.386 106.008 30.782C106.008 31.166 105.894 31.862 105.666 32.87C105.57 33.302 105.504 33.626 105.468 33.842C106.068 32.366 106.734 31.292 107.466 30.62C108.198 29.948 108.882 29.612 109.518 29.612C110.298 29.612 110.688 30.002 110.688 30.782C110.688 31.25 110.556 32.096 110.292 33.32C110.064 34.364 109.95 35.054 109.95 35.39C109.95 35.87 110.124 36.11 110.472 36.11C110.712 36.11 110.994 35.966 111.318 35.678C111.654 35.378 112.098 34.898 112.65 34.238C112.794 34.07 112.956 33.986 113.136 33.986C113.292 33.986 113.412 34.058 113.496 34.202C113.592 34.346 113.64 34.544 113.64 34.796C113.64 35.276 113.526 35.648 113.298 35.912C112.782 36.548 112.224 37.07 111.624 37.478C111.036 37.886 110.364 38.09 109.608 38.09C108.996 38.09 108.534 37.916 108.222 37.568C107.91 37.208 107.754 36.692 107.754 36.02C107.754 35.684 107.838 35.084 108.006 34.22C108.162 33.464 108.24 32.942 108.24 32.654C108.24 32.462 108.174 32.366 108.042 32.366C107.886 32.366 107.664 32.57 107.376 32.978C107.088 33.374 106.8 33.902 106.512 34.562C106.224 35.222 105.99 35.918 105.81 36.65C105.678 37.226 105.522 37.61 105.342 37.802C105.174 37.994 104.898 38.09 104.514 38.09C104.118 38.09 103.818 37.904 103.614 37.532C103.422 37.148 103.326 36.686 103.326 36.146C103.326 35.69 103.386 35.03 103.506 34.166C103.602 33.398 103.65 32.894 103.65 32.654C103.65 32.462 103.584 32.366 103.452 32.366C103.272 32.366 103.044 32.582 102.768 33.014C102.492 33.446 102.222 33.998 101.958 34.67C101.706 35.342 101.502 36.002 101.346 36.65C101.214 37.214 101.058 37.598 100.878 37.802C100.71 37.994 100.44 38.09 100.068 38.09ZM114.398 38.09C113.654 38.09 113.06 37.82 112.616 37.28C112.172 36.74 111.95 36.032 111.95 35.156C111.95 34.196 112.172 33.29 112.616 32.438C113.06 31.574 113.648 30.884 114.38 30.368C115.124 29.84 115.91 29.576 116.738 29.576C117.002 29.576 117.176 29.63 117.26 29.738C117.356 29.834 117.434 30.014 117.494 30.278C117.746 30.23 118.01 30.206 118.286 30.206C118.874 30.206 119.168 30.416 119.168 30.836C119.168 31.088 119.078 31.688 118.898 32.636C118.622 34.016 118.484 34.976 118.484 35.516C118.484 35.696 118.526 35.84 118.61 35.948C118.706 36.056 118.826 36.11 118.97 36.11C119.198 36.11 119.474 35.966 119.798 35.678C120.122 35.378 120.56 34.898 121.112 34.238C121.256 34.07 121.418 33.986 121.598 33.986C121.754 33.986 121.874 34.058 121.958 34.202C122.054 34.346 122.102 34.544 122.102 34.796C122.102 35.276 121.988 35.648 121.76 35.912C121.268 36.524 120.746 37.04 120.194 37.46C119.642 37.88 119.108 38.09 118.592 38.09C118.196 38.09 117.83 37.958 117.494 37.694C117.17 37.418 116.924 37.046 116.756 36.578C116.132 37.586 115.346 38.09 114.398 38.09ZM115.046 36.272C115.31 36.272 115.562 36.116 115.802 35.804C116.042 35.492 116.216 35.078 116.324 34.562L116.99 31.25C116.486 31.262 116.018 31.454 115.586 31.826C115.166 32.186 114.83 32.666 114.578 33.266C114.326 33.866 114.2 34.502 114.2 35.174C114.2 35.546 114.272 35.822 114.416 36.002C114.572 36.182 114.782 36.272 115.046 36.272ZM131.367 33.986C131.523 33.986 131.643 34.058 131.727 34.202C131.823 34.346 131.871 34.544 131.871 34.796C131.871 35.276 131.757 35.648 131.529 35.912C130.905 36.644 130.305 37.19 129.729 37.55C129.153 37.91 128.583 38.09 128.019 38.09C127.527 38.09 127.149 37.916 126.885 37.568C126.621 37.22 126.489 36.722 126.489 36.074C126.489 35.726 126.525 35.348 126.597 34.94H126.561C125.445 37.04 124.023 38.09 122.295 38.09C121.551 38.09 120.945 37.874 120.477 37.442C120.021 37.01 119.793 36.44 119.793 35.732C119.793 35.108 119.931 34.616 120.207 34.256C120.495 33.896 120.885 33.716 121.377 33.716C121.809 33.716 122.025 33.89 122.025 34.238C122.025 34.286 122.013 34.37 121.989 34.49C121.965 34.682 121.953 34.826 121.953 34.922C121.953 35.306 122.037 35.624 122.205 35.876C122.373 36.128 122.601 36.254 122.889 36.254C123.261 36.254 123.639 36.14 124.023 35.912C124.407 35.672 124.785 35.336 125.157 34.904H124.923C124.203 34.904 123.627 34.676 123.195 34.22C122.775 33.764 122.565 33.152 122.565 32.384C122.565 31.496 122.823 30.812 123.339 30.332C123.855 29.84 124.575 29.594 125.499 29.594C126.147 29.594 126.813 29.696 127.497 29.9C127.629 29.72 127.905 29.63 128.325 29.63C128.565 29.63 128.751 29.69 128.883 29.81C129.027 29.918 129.087 30.068 129.063 30.26C129.039 30.56 128.931 31.094 128.739 31.862C128.559 32.63 128.421 33.29 128.325 33.842C128.229 34.394 128.181 34.91 128.181 35.39C128.181 35.618 128.223 35.798 128.307 35.93C128.403 36.05 128.535 36.11 128.703 36.11C128.931 36.11 129.207 35.972 129.531 35.696C129.855 35.42 130.305 34.934 130.881 34.238C131.013 34.07 131.175 33.986 131.367 33.986ZM126.111 33.518C126.519 32.81 126.843 32.054 127.083 31.25C126.651 31.118 126.267 31.052 125.931 31.052C125.451 31.052 125.079 31.166 124.815 31.394C124.551 31.622 124.419 31.946 124.419 32.366C124.419 32.702 124.527 32.984 124.743 33.212C124.971 33.44 125.253 33.554 125.589 33.554C125.745 33.554 125.919 33.542 126.111 33.518Z" fill="#2D0C57"/>
<path d="M135.044 47.474C135.2 47.474 135.32 47.552 135.404 47.708C135.488 47.864 135.53 48.062 135.53 48.302C135.53 48.878 135.356 49.22 135.008 49.328C134.288 49.58 133.496 49.724 132.632 49.76C132.404 50.768 131.954 51.578 131.282 52.19C130.61 52.79 129.848 53.09 128.996 53.09C128.276 53.09 127.658 52.916 127.142 52.568C126.638 52.22 126.254 51.758 125.99 51.182C125.726 50.606 125.594 49.982 125.594 49.31C125.594 48.398 125.768 47.588 126.116 46.88C126.464 46.16 126.944 45.602 127.556 45.206C128.168 44.798 128.846 44.594 129.59 44.594C130.502 44.594 131.234 44.912 131.786 45.548C132.35 46.172 132.68 46.946 132.776 47.87C133.34 47.834 134.012 47.714 134.792 47.51C134.888 47.486 134.972 47.474 135.044 47.474ZM129.14 51.182C129.524 51.182 129.854 51.026 130.13 50.714C130.418 50.402 130.61 49.952 130.706 49.364C130.334 49.112 130.046 48.782 129.842 48.374C129.65 47.966 129.554 47.534 129.554 47.078C129.554 46.886 129.572 46.694 129.608 46.502H129.518C129.038 46.502 128.636 46.736 128.312 47.204C128 47.66 127.844 48.308 127.844 49.148C127.844 49.808 127.97 50.312 128.222 50.66C128.486 51.008 128.792 51.182 129.14 51.182ZM143.561 47.474C143.717 47.474 143.837 47.552 143.921 47.708C144.005 47.864 144.047 48.062 144.047 48.302C144.047 48.602 144.005 48.836 143.921 49.004C143.837 49.16 143.705 49.268 143.525 49.328C142.805 49.58 142.013 49.724 141.149 49.76C140.909 50.756 140.453 51.56 139.781 52.172C139.121 52.784 138.389 53.09 137.585 53.09C136.373 53.09 135.491 52.628 134.939 51.704C134.387 50.78 134.111 49.442 134.111 47.69C134.111 46.142 134.303 44.462 134.687 42.65C135.071 40.826 135.629 39.278 136.361 38.006C137.105 36.722 137.987 36.08 139.007 36.08C139.559 36.08 140.003 36.32 140.339 36.8C140.675 37.268 140.843 37.88 140.843 38.636C140.843 39.62 140.657 40.598 140.285 41.57C139.913 42.542 139.295 43.562 138.431 44.63C139.235 44.69 139.889 45.026 140.393 45.638C140.897 46.238 141.197 46.982 141.293 47.87C141.857 47.834 142.529 47.714 143.309 47.51C143.381 47.486 143.465 47.474 143.561 47.474ZM138.593 37.862C138.353 37.862 138.089 38.222 137.801 38.942C137.525 39.65 137.267 40.616 137.027 41.84C136.787 43.064 136.607 44.402 136.487 45.854C137.279 44.402 137.909 43.124 138.377 42.02C138.857 40.904 139.097 39.914 139.097 39.05C139.097 38.666 139.049 38.372 138.953 38.168C138.869 37.964 138.749 37.862 138.593 37.862ZM137.657 51.182C138.029 51.182 138.359 51.026 138.647 50.714C138.935 50.402 139.127 49.952 139.223 49.364C138.851 49.112 138.563 48.782 138.359 48.374C138.167 47.966 138.071 47.534 138.071 47.078C138.071 46.91 138.095 46.682 138.143 46.394H138.089C137.597 46.394 137.183 46.64 136.847 47.132C136.523 47.612 136.361 48.26 136.361 49.076C136.361 49.76 136.487 50.282 136.739 50.642C137.003 51.002 137.309 51.182 137.657 51.182ZM150.521 48.986C150.677 48.986 150.797 49.058 150.881 49.202C150.977 49.346 151.025 49.544 151.025 49.796C151.025 50.276 150.911 50.648 150.683 50.912C150.239 51.452 149.609 51.95 148.793 52.406C147.989 52.862 147.125 53.09 146.201 53.09C144.941 53.09 143.963 52.748 143.267 52.064C142.571 51.38 142.223 50.444 142.223 49.256C142.223 48.428 142.397 47.66 142.745 46.952C143.093 46.232 143.573 45.662 144.185 45.242C144.809 44.822 145.511 44.612 146.291 44.612C146.987 44.612 147.545 44.822 147.965 45.242C148.385 45.65 148.595 46.208 148.595 46.916C148.595 47.744 148.295 48.458 147.695 49.058C147.107 49.646 146.105 50.114 144.689 50.462C144.989 51.014 145.559 51.29 146.399 51.29C146.939 51.29 147.551 51.104 148.235 50.732C148.931 50.348 149.531 49.85 150.035 49.238C150.179 49.07 150.341 48.986 150.521 48.986ZM145.985 46.376C145.541 46.376 145.163 46.634 144.851 47.15C144.551 47.666 144.401 48.29 144.401 49.022V49.058C145.109 48.89 145.667 48.638 146.075 48.302C146.483 47.966 146.687 47.576 146.687 47.132C146.687 46.904 146.621 46.724 146.489 46.592C146.369 46.448 146.201 46.376 145.985 46.376ZM159.045 51.632C158.505 52.004 157.641 52.544 156.453 53.252C156.297 53.972 156.147 54.596 156.003 55.124C155.703 56.204 155.259 57.032 154.671 57.608C154.083 58.184 153.411 58.472 152.655 58.472C152.151 58.472 151.731 58.304 151.395 57.968C151.071 57.632 150.909 57.212 150.909 56.708C150.909 56.276 151.011 55.862 151.215 55.466C151.431 55.082 151.815 54.65 152.367 54.17C152.931 53.69 153.723 53.144 154.743 52.532V52.496C154.395 52.436 154.119 52.238 153.915 51.902C153.723 51.554 153.627 51.104 153.627 50.552C153.435 51.332 153.135 51.95 152.727 52.406C152.331 52.862 151.887 53.09 151.395 53.09C150.867 53.09 150.429 52.844 150.081 52.352C149.733 51.86 149.559 51.236 149.559 50.48C149.559 49.592 149.619 48.776 149.739 48.032C149.859 47.276 150.057 46.472 150.333 45.62C150.453 45.248 150.621 44.99 150.837 44.846C151.065 44.69 151.407 44.612 151.863 44.612C152.115 44.612 152.295 44.654 152.403 44.738C152.511 44.81 152.565 44.936 152.565 45.116C152.565 45.212 152.499 45.536 152.367 46.088C152.247 46.532 152.151 46.934 152.079 47.294C151.839 48.566 151.719 49.406 151.719 49.814C151.719 50.054 151.749 50.228 151.809 50.336C151.869 50.444 151.965 50.498 152.097 50.498C152.421 50.498 152.811 50.042 153.267 49.13C153.723 48.218 154.143 47.048 154.527 45.62C154.623 45.248 154.773 44.99 154.977 44.846C155.181 44.69 155.475 44.612 155.859 44.612C156.135 44.612 156.327 44.648 156.435 44.72C156.543 44.78 156.597 44.9 156.597 45.08C156.597 45.368 156.447 46.16 156.147 47.456C156.015 47.996 155.895 48.53 155.787 49.058C155.679 49.586 155.625 49.964 155.625 50.192C155.625 50.42 155.655 50.582 155.715 50.678C155.775 50.762 155.865 50.804 155.985 50.804C156.033 50.804 156.087 50.798 156.147 50.786C156.207 50.774 156.267 50.768 156.327 50.768C156.411 50.768 156.471 50.81 156.507 50.894C156.555 50.978 156.573 51.146 156.561 51.398C157.329 50.918 158.025 50.444 158.649 49.976C158.781 49.88 158.919 49.832 159.063 49.832C159.219 49.832 159.339 49.904 159.423 50.048C159.519 50.192 159.567 50.384 159.567 50.624C159.567 50.876 159.531 51.074 159.459 51.218C159.387 51.35 159.249 51.488 159.045 51.632ZM153.033 56.78C153.345 56.78 153.645 56.552 153.933 56.096C154.221 55.64 154.419 55.034 154.527 54.278C153.279 55.022 152.655 55.724 152.655 56.384C152.655 56.648 152.781 56.78 153.033 56.78Z" fill="#2D0C57"/>
</svg>
